<?xml version="1.0" encoding="UTF-8" standalone="no"?>
<!-- Generator: Adobe Illustrator 25.0.1, SVG Export Plug-In . SVG Version: 6.00 Build 0)  -->

<svg
   version="1.1"
   x="0px"
   y="0px"
   viewBox="0 0 243.669 315.474"
   xml:space="preserve"
   id="svg36"
   sodipodi:docname="butterfly.svg"
   width="243.66901"
   height="315.474"
   inkscape:version="1.1 (c68e22c387, 2021-05-23)"
   xmlns:inkscape="http://www.inkscape.org/namespaces/inkscape"
   xmlns:sodipodi="http://sodipodi.sourceforge.net/DTD/sodipodi-0.dtd"
   xmlns="http://www.w3.org/2000/svg"
   xmlns:svg="http://www.w3.org/2000/svg"><defs
   id="defs40" /><sodipodi:namedview
   id="namedview38"
   pagecolor="#505050"
   bordercolor="#ffffff"
   borderopacity="1"
   inkscape:pageshadow="0"
   inkscape:pageopacity="0"
   inkscape:pagecheckerboard="1"
   showgrid="false"
   inkscape:zoom="1.4322756"
   inkscape:cx="141.3834"
   inkscape:cy="3.8400431"
   inkscape:window-width="1920"
   inkscape:window-height="1001"
   inkscape:window-x="-9"
   inkscape:window-y="-9"
   inkscape:window-maximized="1"
   inkscape:current-layer="svg36" />
<style
   type="text/css"
   id="style2">
	.st0{fill:#991554;}
	.st1{fill:#FFCCDF;}
	.st2{fill:#E35991;}
	.st3{fill:#F792BA;}
	.st4{fill:#BF3272;}
</style>
<g
   id="BG">
</g>
<g
   id="graphics"
   inkscape:export-filename="C:\Users\shifa\Desktop\pf project\portfolio-main\static\img\brand\butterfly.svg"
   inkscape:export-xdpi="96"
   inkscape:export-ydpi="96"
   transform="translate(-271.098,-134.71932)">
	<g
   id="g33">
		<g
   id="g11">
			<path
   class="st0"
   d="m 341.03,349.13 c 9.32,-0.74 22.99,4.64 45.38,34.77 17.27,23.24 21.71,31.06 18.71,33.74 -4.15,3.71 -9.86,-5.47 -30.9,-32.27 -16.74,-21.33 -28.39,-18.2 -35.31,-21.22 -8.71,-3.8 -5.92,-14.38 2.12,-15.02 z"
   id="path5" />
			<path
   class="st0"
   d="m 309.67,316.19 c 0.49,-1.06 1.56,-2.26 6.16,-1.22 6.66,1.5 13.25,6.88 18.94,17.87 5.09,9.85 5.75,13 4.9,13.46 -0.89,0.47 -2.94,-3.89 -5.76,-9.48 -3.4,-6.76 -8.35,-13.13 -17.71,-15.23 -6.08,-1.35 -7.29,-3.77 -6.53,-5.4 z"
   id="path7" />
			<path
   class="st0"
   d="m 300.14,329.69 c 0.12,-1.11 0.72,-2.52 5.21,-2.98 6.49,-0.66 14.1,2.21 22.59,10.45 7.61,7.38 9.16,10.04 8.53,10.71 -0.66,0.7 -3.84,-2.63 -8.09,-6.85 -5.14,-5.09 -11.56,-9.37 -20.68,-8.42 -5.92,0.62 -7.74,-1.2 -7.56,-2.91 z"
   id="path9" />
		</g>
		<g
   id="g23">
			<path
   class="st1"
   d="m 382.9,305.61 c -2.33,24.01 -1.01,61.42 22.55,81.8 23.56,20.38 49.37,12.41 69.16,37.65 19.79,25.24 17.2,24.06 27.05,25.09 9.84,1.03 21.28,-16.59 4.74,-26.28 -16.54,-9.69 -23.65,-22.93 -23.33,-34.66 0.33,-11.73 -4.54,-32.68 -40.19,-29.18 -35.65,3.5 -24.4,-12.33 -17.53,-19.21 6.87,-6.88 29.52,-27.85 41.75,-65.11 11.8,-35.96 -7.85,-66.69 -33.19,-73.51 -29.51,-7.94 -49.96,-6.31 -44.57,-23.67 8.75,-28.22 4.03,-45.36 -12.97,-43.7 -19,1.85 -13.69,27.51 -7.7,45.88 5.6,17.23 18.72,78.5 14.23,124.9 z"
   id="path13" />
			<path
   class="st2"
   d="m 478.62,415.4 c -2.62,-6.82 -14.56,-25.05 -15.29,-26.2 -10.97,-17.27 -17.49,-23.09 -37.83,-21.8 -15.43,0.98 -20.56,-3.69 -11.32,-15.76 3.52,-4.68 31.72,-36.8 29.68,-68.3 -1.24,-13.58 -5.37,-25.32 -15.4,-32.65 -27.36,-19.99 -44.14,-6.21 -45.86,7.55 1.36,16.02 1.73,32.46 0.29,47.36 -2.33,24.01 -1.01,61.42 22.55,81.8 21.96,19 45.85,13.39 65.05,32.94 5.22,5.32 10.67,1.66 8.13,-4.94 z"
   id="path15" />
			<path
   class="st3"
   d="m 487.98,415.29 c -5.95,-11.59 -15.96,-35.27 -29.62,-45.98 -5.82,-4.57 -14.99,-5.66 -24.17,-5.59 -12.99,0.1 -18.51,-0.96 -19.99,-4.36 -3.62,-8.36 21.43,-26.29 36.75,-59.84 1.04,-2.27 1.87,-4.67 2.72,-7.12 10.5,-29.84 -8.79,-61.77 -28.22,-71.74 -25.92,-13.29 -48.26,-6.7 -44.99,17.99 0.75,5.7 1.66,14.94 2.12,19.81 1.58,-13.83 18.38,-27.86 45.89,-7.76 16.74,12.24 27.62,47.84 -9.85,95.33 -0.01,0.01 -0.02,0.03 -0.03,0.04 -3.65,4.72 -11.2,12.81 -8.41,17.75 2.2,3.69 9.39,3.86 13.68,3.68 21.43,-0.81 25.73,1.76 39.47,21.71 1.94,2.77 7.2,11.17 11.06,17.97 1.15,1.99 3.48,6.07 4.23,8.23 2.09,6.03 -1.35,9.38 -7.25,5.84 15.7,18.15 24.76,9.92 16.61,-5.96 z"
   id="path17" />
			<path
   class="st4"
   d="m 416.82,371.1 c -6.61,0.85 -10.31,-1.3 -11.32,-4.15 -0.89,-2.51 0.42,-5.44 1.61,-7.87 0,0 9.28,-16.09 18.31,-34.24 3.17,-6.37 7.72,-22.26 0.44,-34.01 -12.45,-20.08 -27.93,-17.3 -34.28,-11.98 -8.37,7.02 -8.05,19.5 -8.68,26.75 -2.21,25.33 -1.01,61.42 22.55,81.8 16.93,14.65 35.03,14.65 51.22,22.86 8.87,3.36 3.4,-10.11 -0.42,-17.3 -5.69,-10.71 -10.68,-25.56 -39.43,-21.86 z"
   id="path19" />
			<path
   class="st0"
   d="m 444.9,393.42 c -0.17,-7.75 -10.76,-17.7 -18.93,-18.52 -8.17,-0.82 -22.93,2.42 -24.83,-4.15 -1.9,-6.57 2.79,-12.66 10.71,-25.65 7.92,-12.99 9.81,-21.02 3.04,-30.45 -9.72,-13.53 -23.83,-9.89 -26.82,5.67 -1.99,10.35 -0.08,31.41 0.66,37.01 1.51,11.41 5.97,20.81 15.42,27.92 11.53,8.67 40.94,16.85 40.75,8.17 z"
   id="path21" />
		</g>
		<g
   id="g31">
			<path
   class="st1"
   d="m 380.32,364.97 c -7.58,-18.87 -9.22,-39.46 -9.26,-53.36 -0.08,-27.76 -4.28,-65.28 -23.12,-77.98 -8.07,-5.44 -16.91,-2.13 -24.69,-1.62 -8.3,0.55 -13.46,-1.42 -15.45,-10.1 -6.28,-27.29 -18.17,-40.48 -31.09,-33.3 -14.43,8.02 1.97,28.35 15.46,42.17 12.66,12.97 52.17,61.37 70.45,102.9 4.12,9.37 10.01,20.7 17.7,31.29 z"
   id="path25" />
			<path
   class="st2"
   d="m 324.2,270.04 c 14.07,19.21 29.04,42.33 38.42,63.65 0.23,0.54 0.5,1.1 0.75,1.65 -0.85,-4.04 -4.54,-18.39 -8.35,-31.5 -5.62,-19.35 -12.29,-31.55 -24.14,-33.77 -3.04,-0.58 -5.17,-0.4 -6.68,-0.03 z"
   id="path27" />
			<path
   class="st3"
   d="m 359.31,299.16 c -3.83,-27.14 -13.57,-48.63 -29.17,-53.64 -10.99,-3.53 -17.75,0.8 -19.72,6.5 4.32,5.4 8.99,11.48 13.77,18.01 0.01,0 0.03,0 0.05,-0.01 1.5,-0.36 3.63,-0.53 6.63,0.03 11.84,2.23 18.51,14.42 24.14,33.77 3.82,13.14 7.51,27.5 8.35,31.52 3.06,6.76 7,14.4 11.83,22.01 0.01,-0.03 0.02,-0.06 0.04,-0.09 -9.45,-16.33 -13.52,-41.09 -15.92,-58.1 z"
   id="path29" />
		</g>
	</g>
</g>
</svg>
